REM DIRINDEX 1\2\4,1\2\5,1\2\6,1\2\7,1\3\8,1\3\9
REM DIRNAME folder01,folder02,folder03,folder04,folder05,folder06,folder07,folder08,folder09
TITLE ""
FILE "Disc2Track07.mp3" MP3
  TRACK 01 AUDIO
    TITLE "0:"
    INDEX 01 00:00:00
  TRACK 02 AUDIO
    TITLE "4:cjc037_1144"
    INDEX 01 00:00:07
  TRACK 03 AUDIO
    TITLE "0:"
    INDEX 01 00:01:40
  TRACK 04 AUDIO
    TITLE "4:cjc037_1145"
    INDEX 01 00:02:45
  TRACK 05 AUDIO
    TITLE "0:"
    INDEX 01 00:04:25
  TRACK 06 AUDIO
    TITLE "5:cjc037_1146"
    INDEX 01 00:05:01
  TRACK 07 AUDIO
    TITLE "0:"
    INDEX 01 00:09:47
  TRACK 08 AUDIO
    TITLE "6:cjc037_1147"
    INDEX 01 00:13:08
  TRACK 09 AUDIO
    TITLE "0:"
    INDEX 01 00:16:34
  TRACK 10 AUDIO
    TITLE "7:cjc037_1148"
    INDEX 01 00:19:67
  TRACK 11 AUDIO
    TITLE "0:"
    INDEX 01 00:22:42
  TRACK 12 AUDIO
    TITLE "4:cjc037_1149"
    INDEX 01 00:25:01
  TRACK 13 AUDIO
    TITLE "0:"
    INDEX 01 00:27:04
  TRACK 14 AUDIO
    TITLE "5:cjc037_1150"
    INDEX 01 00:27:61
  TRACK 15 AUDIO
    TITLE "0:"
    INDEX 01 00:32:00
  TRACK 16 AUDIO
    TITLE "6:cjc037_1151"
    INDEX 01 00:35:35
  TRACK 17 AUDIO
    TITLE "0:"
    INDEX 01 00:38:67
  TRACK 18 AUDIO
    TITLE "7:cjc037_1152"
    INDEX 01 00:42:25
  TRACK 19 AUDIO
    TITLE "0:"
    INDEX 01 00:45:10
  TRACK 20 AUDIO
    TITLE "4:cjc037_1153"
    INDEX 01 00:47:44
  TRACK 21 AUDIO
    TITLE "0:"
    INDEX 01 00:49:25
  TRACK 22 AUDIO
    TITLE "5:cjc037_1154"
    INDEX 01 00:50:03
  TRACK 23 AUDIO
    TITLE "0:"
    INDEX 01 00:52:61
  TRACK 24 AUDIO
    TITLE "6:cjc037_1155"
    INDEX 01 00:56:22
  TRACK 25 AUDIO
    TITLE "0:"
    INDEX 01 00:59:24
  TRACK 26 AUDIO
    TITLE "7:cjc037_1156"
    INDEX 01 01:02:57
  TRACK 27 AUDIO
    TITLE "0:"
    INDEX 01 01:05:24
  TRACK 28 AUDIO
    TITLE "4:cjc037_1157"
    INDEX 01 01:07:57
  TRACK 29 AUDIO
    TITLE "0:"
    INDEX 01 01:09:52
  TRACK 30 AUDIO
    TITLE "5:cjc037_1158"
    INDEX 01 01:10:31
  TRACK 31 AUDIO
    TITLE "0:"
    INDEX 01 01:13:06
  TRACK 32 AUDIO
    TITLE "6:cjc037_1159"
    INDEX 01 01:16:40
  TRACK 33 AUDIO
    TITLE "0:"
    INDEX 01 01:18:66
  TRACK 34 AUDIO
    TITLE "7:cjc037_1160"
    INDEX 01 01:22:27
  TRACK 35 AUDIO
    TITLE "0:"
    INDEX 01 01:24:22
  TRACK 36 AUDIO
    TITLE "4:cjc037_1161"
    INDEX 01 01:26:56
  TRACK 37 AUDIO
    TITLE "0:"
    INDEX 01 01:28:49
  TRACK 38 AUDIO
    TITLE "5:cjc037_1162"
    INDEX 01 01:29:25
  TRACK 39 AUDIO
    TITLE "0:"
    INDEX 01 01:32:45
  TRACK 40 AUDIO
    TITLE "6:cjc037_1163"
    INDEX 01 01:36:01
  TRACK 41 AUDIO
    TITLE "0:"
    INDEX 01 01:38:53
  TRACK 42 AUDIO
    TITLE "7:cjc037_1164"
    INDEX 01 01:42:14
  TRACK 43 AUDIO
    TITLE "0:"
    INDEX 01 01:44:24
  TRACK 44 AUDIO
    TITLE "4:cjc037_1165"
    INDEX 01 01:46:59
  TRACK 45 AUDIO
    TITLE "0:"
    INDEX 01 01:48:46
  TRACK 46 AUDIO
    TITLE "5:cjc037_1166"
    INDEX 01 01:49:24
  TRACK 47 AUDIO
    TITLE "0:"
    INDEX 01 01:54:58
  TRACK 48 AUDIO
    TITLE "6:cjc037_1167"
    INDEX 01 01:58:17
  TRACK 49 AUDIO
    TITLE "0:"
    INDEX 01 02:02:03
  TRACK 50 AUDIO
    TITLE "7:cjc037_1168"
    INDEX 01 02:05:38
  TRACK 51 AUDIO
    TITLE "0:"
    INDEX 01 02:08:52
  TRACK 52 AUDIO
    TITLE "4:cjc037_1169"
    INDEX 01 02:11:10
  TRACK 53 AUDIO
    TITLE "0:"
    INDEX 01 02:13:09
  TRACK 54 AUDIO
    TITLE "5:cjc037_1170"
    INDEX 01 02:13:59
  TRACK 55 AUDIO
    TITLE "0:"
    INDEX 01 02:16:26
  TRACK 56 AUDIO
    TITLE "6:cjc037_1171"
    INDEX 01 02:19:58
  TRACK 57 AUDIO
    TITLE "0:"
    INDEX 01 02:22:45
  TRACK 58 AUDIO
    TITLE "7:cjc037_1172"
    INDEX 01 02:26:13
  TRACK 59 AUDIO
    TITLE "0:"
    INDEX 01 02:28:35
  TRACK 60 AUDIO
    TITLE "4:cjc037_1173"
    INDEX 01 02:30:72
  TRACK 61 AUDIO
    TITLE "0:"
    INDEX 01 02:32:67
  TRACK 62 AUDIO
    TITLE "5:cjc037_1174"
    INDEX 01 02:33:46
  TRACK 63 AUDIO
    TITLE "0:"
    INDEX 01 02:37:31
  TRACK 64 AUDIO
    TITLE "6:cjc037_1175"
    INDEX 01 02:40:64
  TRACK 65 AUDIO
    TITLE "0:"
    INDEX 01 02:44:40
  TRACK 66 AUDIO
    TITLE "7:cjc037_1176"
    INDEX 01 02:48:01
  TRACK 67 AUDIO
    TITLE "0:"
    INDEX 01 02:50:72
  TRACK 68 AUDIO
    TITLE "4:cjc037_1177"
    INDEX 01 02:53:32
  TRACK 69 AUDIO
    TITLE "0:"
    INDEX 01 02:55:28
  TRACK 70 AUDIO
    TITLE "5:cjc037_1178"
    INDEX 01 02:56:04
  TRACK 71 AUDIO
    TITLE "0:"
    INDEX 01 03:00:51
  TRACK 72 AUDIO
    TITLE "6:cjc037_1179"
    INDEX 01 03:04:12
  TRACK 73 AUDIO
    TITLE "0:"
    INDEX 01 03:08:08
  TRACK 74 AUDIO
    TITLE "7:cjc037_1180"
    INDEX 01 03:11:41
  TRACK 75 AUDIO
    TITLE "0:"
    INDEX 01 03:14:57
  TRACK 76 AUDIO
    TITLE "4:cjc037_1181"
    INDEX 01 03:17:16
  TRACK 77 AUDIO
    TITLE "0:"
    INDEX 01 03:19:09
  TRACK 78 AUDIO
    TITLE "5:cjc037_1182"
    INDEX 01 03:19:60
  TRACK 79 AUDIO
    TITLE "0:"
    INDEX 01 03:23:19
  TRACK 80 AUDIO
    TITLE "6:cjc037_1183"
    INDEX 01 03:26:58
  TRACK 81 AUDIO
    TITLE "0:"
    INDEX 01 03:29:06
  TRACK 82 AUDIO
    TITLE "7:cjc037_1184"
    INDEX 01 03:32:43
  TRACK 83 AUDIO
    TITLE "0:"
    INDEX 01 03:34:38
  TRACK 84 AUDIO
    TITLE "4:cjc037_1185"
    INDEX 01 03:36:71
  TRACK 85 AUDIO
    TITLE "0:"
    INDEX 01 03:38:46
  TRACK 86 AUDIO
    TITLE "5:cjc037_1186"
    INDEX 01 03:39:20
  TRACK 87 AUDIO
    TITLE "0:"
    INDEX 01 03:41:52
  TRACK 88 AUDIO
    TITLE "6:cjc037_1187"
    INDEX 01 03:45:21
  TRACK 89 AUDIO
    TITLE "0:"
    INDEX 01 03:48:27
  TRACK 90 AUDIO
    TITLE "7:cjc037_1188"
    INDEX 01 03:51:62
  TRACK 91 AUDIO
    TITLE "0:"
    INDEX 01 03:54:37
